/* XPM */
static const char * c_xpm[] = {
"30 37 7 1",
" 	c None",
".	c #FF4444",
"+	c #000000",
"@	c #CEB030",
"#	c #CEAF30",
"$	c #CDAF31",
"%	c #E03030",
"....                          ",
"....                          ",
"....                          ",
"....+                         ",
"....++@                       ",
"+....+.@                      ",
" +....++#@                    ",
" +.....++.@                   ",
" +......+++@                  ",
" +........+++@                ",
" ++.........+++               ",
" ++...........++++            ",
" ++..............+++          ",
" ++...............$@+++       ",
"  +.................@%++++    ",
"  +..................@@%%++++ ",
"  +....................@%%%+++",
"  ++....................@%%%++",
"   +.....................++%%+",
"   +.......................+%+",
"   ++.......................++",
"   ++.....................++++",
"    +....................++   ",
"    +...................++    ",
"    ++................++      ",
"    ++..............++        ",
"    ++.............++         ",
"     ++...........++          ",
"     ++..........++           ",
"     ++........+++            ",
"     ++.......++              ",
"      +......++               ",
"      +.....++                ",
"      +....++                 ",
"      +...++                  ",
"      +..++                   ",
"      ++++                    "};
